{"title":"The.Possession.Of.Michael.King.2014.720p GREEK SUBS","uid":11028360,"size":2238930236,"categoryP":"video","categoryS":"hd___movies","magnet":"?xt=urn:btih:e31d9b1c2276f63b42fe36bb3f35ed6ddf1291ff&amp;dn=The.Possession.Of.Michael.King.2014.720p+GREEK+SUBS&amp;tr=udp%3A%2F%2Ftracker.openbittorrent.com%3A80&amp;tr=udp%3A%2F%2Fopen.demonii.com%3A1337&amp;tr=udp%3A%2F%2Ftracker.coppersurfer.tk%3A6969&amp;tr=udp%3A%2F%2Fexodus.desync.com%3A6969","seeders":1,"leechers":0,"uploader":"holyANT","files":-1,"time":1410687954,"description":"\n To eperxomeno film tromoy toy protari David Jung kykloforei ton erxomeno Aygoysto, epomenos irthe i ora gia liges plirofories peri aytoy. To Â«The Possession of Michael KingÂ» opos legetai i tainia, exei skinothetithei kai graftei apo ton idio ton Jung, me ton Tedi Serafian na syneisferei sto senario opos eixe kanei kai me to Â«Exolothreytis 3: I Exegersi ton MixanonÂ». Prokeitai gia tainia metafysikoy tromoy poy epikentronetai ston xaraktira Michael King, enan kinimatografisti poy den pisteyei oyte sto THeo oyte sto Diabolo. Meta ton thanato tis syzygoy toy o Michael apofasizei na gyrisei ena ntokimanter gia ton kosmo toy yperfysikoy epitrepontas se daimonologoys, nekromanteis kai kathe eidoys pneymatisti apo to pedio toy metafysikoy na ton kanoyn Â«peiramatozooÂ» toys kata kapoio tropo, me apotero skopo na apodeixei mia kai kali oti ola osa exoyn na kanoyn me to supernatural kai ti thriskeia einai abasima kai pseydi. Kati paei straba omos kai o Michael katalambanetai apo mia kakoboyli yperfysiki dynami poy den thelei na ton afisei eleythero pote xana.\n\nYpotitloi: Ellinikoi\nSpecial feature: Greek subtitles\nGlossa: Agglika\n\nEpisimi premiera: 22-08-2014\n\n\nParagogi: 2014\nEidos Tainias: Tromoy, THriler, Mystirioy\nSkinothetis: David Jung\nIthopoioi: Shane Johnson , Julie McNiven , Ella Anderson , Cara Pifko , Dale Dickey , Tomas Arana , Tobias Jelinek , Anna Mountford\nThe Possession of Michael King (2014)\n\n &lt;a href=&quot;\nhttp://image.bayimg.com/ad694fec095b56d13df7bb6ba8f97c95c3aeebc2.jpg&quot; rel=&quot;nofollow&quot; target=&quot;_NEW&quot;&gt;\nhttp://image.bayimg.com/ad694fec095b56d13df7bb6ba8f97c95c3aeebc2.jpg&lt;/a&gt;\n\nGeneral\nUnique ID : 194672833019420749938938662961078552143 (0x92749FB47135BA5FDE8F0D28B16F464F)\nComplete name : The.Possession.Of.Michael.King.2014.720p.BRRip.x264.AC3-MAJESTiC/The.Possession.Of.Michael.King.2014.720p.BRRip.x264.AC3-MAJESTiC.mkv\nFormat : Matroska\nFormat version : Version 2\nFile size : 2.09 GiB\nDuration : 1h 23mn\nOverall bit rate : 3 579 Kbps\nWriting application : HandBrake rev0\nWriting library : libmkv 0.6.5\nTITLE : The.Possession.Of.Michael.King.2014.720p.BRRip.x264.AC3-MAJESTiC\n\nVideo\nID : 1\nFormat : AVC\nFormat/Info : Advanced Video Codec\nFormat profile : &lt;a class=&quot;__cf_email__&quot; href=&quot;/cdn-cgi/l/email-protection&quot; data-cfemail=&quot;460e2f212e060a726877&quot;&gt;[email&amp;#160;protected]&lt;/a&gt;&lt;script cf-hash='f9e31' type=&quot;text/javascript&quot;&gt;\n/* &lt;![CDATA[ */!function(){try{var t=&quot;currentScript&quot;in document?document.currentScript:function(){for(var t=document.getElementsByTagName(&quot;script&quot;),e=t.length;e--;)if(t[e].getAttribute(&quot;cf-hash&quot;))return t[e]}();if(t&amp;&amp;t.previousSibling){var e,r,n,i,c=t.previousSibling,a=c.getAttribute(&quot;data-cfemail&quot;);if(a){for(e=&quot;&quot;,r=parseInt(a.substr(0,2),16),n=2;a.length-n;n+=2)i=parseInt(a.substr(n,2),16)^r,e+=String.fromCharCode(i);e=document.createTextNode(e),c.parentNode.replaceChild(e,c)}}}catch(u){}}();/* ]]&gt; */&lt;/script&gt;\nFormat settings, CABAC : Yes\nFormat settings, ReFrames : 4 frames\nCodec ID : V_MPEG4/ISO/AVC\nDuration : 1h 23mn\nBit rate : 3 200 Kbps\nWidth : 1 280 pixels\nHeight : 720 pixels\nDisplay aspect ratio : 16:9\nFrame rate mode : Variable\nFrame rate : 23.976 fps\nColor space : YUV\nChroma subsampling : 4:2:0\nBit depth : 8 bits\nScan type : Progressive\nBits/(Pixel*Frame) : 0.145\nStream size : 1.78 GiB (85%)\nWriting library : x264 core 130 r2273 b3065e6\nEncoding settings : cabac=1 / ref=1 / deblock=1:1:0 / analyse=0x3:0 / me=hex / subme=2 / psy=1 / psy_rd=1.00:0.00 / mixed_ref=0 / me_range=16 / chroma_me=1 / trellis=0 / 8x8dct=1 / cqm=0 / deadzone=21,11 / fast_pskip=1 / chroma_qp_offset=0 / threads=12 / lookahead_threads=4 / sliced_threads=0 / nr=0 / decimate=1 / interlaced=0 / bluray_compat=0 / constrained_intra=0 / bframes=3 / b_pyramid=2 / b_adapt=1 / b_bias=0 / direct=1 / weightb=1 / open_gop=0 / weightp=2 / keyint=240 / keyint_min=24 / scenecut=40 / intra_refresh=0 / rc_lookahead=40 / rc=abr / mbtree=1 / bitrate=3200 / ratetol=1.0 / qcomp=0.60 / qpmin=0 / qpmax=69 / qpstep=4 / vbv_maxrate=62500 / vbv_bufsize=78125 / nal_hrd=none / ip_ratio=1.40 / aq=1:1.00\nLanguage : English\nDefault : Yes\nForced : No\nColor primaries : BT.709-5, BT.1361, IEC 61966-2-4, SMPTE RP177\nTransfer characteristics : BT.709-5, BT.1361\nMatrix coefficients : BT.709-5, BT.1361, IEC 61966-2-4 709, SMPTE RP177\n\nAudio\nID : 2\nFormat : AC-3\nFormat/Info : Audio Coding 3\nMode extension : CM (complete main)\nCodec ID : A_AC3\nDuration : 1h 23mn\nBit rate mode : Constant\nBit rate : 448 Kbps\nChannel(s) : 6 channels\nChannel positions : Front: L C R, Side: L R, LFE\nSampling rate : 48.0 KHz\nBit depth : 16 bits\nCompression mode : Lossy\nStream size : 267 MiB (13%)\nLanguage : English\nDefault : Yes\nForced : No\n","torrent":{"xt":"urn:btih:e31d9b1c2276f63b42fe36bb3f35ed6ddf1291ff","amp;dn":"The.Possession.Of.Michael.King.2014.720p+GREEK+SUBS","amp;tr":["udp%3A%2F%2Ftracker.openbittorrent.com%3A80","udp%3A%2F%2Fopen.demonii.com%3A1337","udp%3A%2F%2Ftracker.coppersurfer.tk%3A6969","udp%3A%2F%2Fexodus.desync.com%3A6969"],"infoHash":"e31d9b1c2276f63b42fe36bb3f35ed6ddf1291ff","infoHashBuffer":{"type":"Buffer","data":[227,29,155,28,34,118,246,59,66,254,54,187,63,53,237,109,223,18,145,255]},"announce":[],"urlList":[]}}